<?xml version="1.0" encoding="UTF-8" standalone="no"?><svg xmlns="http://www.w3.org/2000/svg" xmlns:xlink="http://www.w3.org/1999/xlink" contentScriptType="application/ecmascript" contentStyleType="text/css" height="264px" preserveAspectRatio="none" style="width:794px;height:264px;" version="1.1" viewBox="0 0 794 264" width="794px" zoomAndPan="magnify"><defs/><g><!--MD5=[a6f11bb19cee6b13000111f5ad685e8b]
cluster Dependencies--><path d="M25,169 L119,169 A4.5,4.5 0 0 1 122,172 L129,189.4844 L327,189.4844 A3,3 0 0 1 330,192.4844 L330,249 A3,3 0 0 1 327,252 L25,252 A3,3 0 0 1 22,249 L22,172 A3,3 0 0 1 25,169 " fill="#FFFFFF" style="stroke: #000000; stroke-width: 1.5;"/><line style="stroke: #000000; stroke-width: 1.5;" x1="22" x2="129" y1="189.4844" y2="189.4844"/><text fill="#000000" font-family="Tahoma, sans-serif" font-size="12" font-weight="bold" lengthAdjust="spacingAndGlyphs" textLength="94" x="26" y="183.0059">Dependencies</text><!--MD5=[14a5ffce9d7755a104d870ea7121d4b9]
entity cookie-parser--><rect fill="#F8F8F8" height="34.4844" rx="3" ry="3" style="stroke: #383838; stroke-width: 1.0;" width="100" x="38" y="202"/><rect fill="#F8F8F8" height="5" style="stroke: #383838; stroke-width: 1.0;" width="10" x="33" y="207"/><rect fill="#F8F8F8" height="5" style="stroke: #383838; stroke-width: 1.0;" width="10" x="33" y="226.4844"/><text fill="#000000" font-family="Tahoma, sans-serif" font-size="12" lengthAdjust="spacingAndGlyphs" textLength="80" x="48" y="224.0059">cookie-parser</text><!--MD5=[e3bfa7961d47c56a847600d8be1ad6f4]
entity mongoose--><rect fill="#F8F8F8" height="34.4844" rx="3" ry="3" style="stroke: #383838; stroke-width: 1.0;" width="83" x="230.5" y="202"/><rect fill="#F8F8F8" height="5" style="stroke: #383838; stroke-width: 1.0;" width="10" x="225.5" y="207"/><rect fill="#F8F8F8" height="5" style="stroke: #383838; stroke-width: 1.0;" width="10" x="225.5" y="226.4844"/><text fill="#000000" font-family="Tahoma, sans-serif" font-size="12" lengthAdjust="spacingAndGlyphs" textLength="63" x="240.5" y="224.0059">mongoose</text><!--MD5=[e27748330ddb770c165fa32e6db25f7f]
entity morgan--><rect fill="#F8F8F8" height="34.4844" rx="3" ry="3" style="stroke: #383838; stroke-width: 1.0;" width="64" x="152" y="202"/><rect fill="#F8F8F8" height="5" style="stroke: #383838; stroke-width: 1.0;" width="10" x="147" y="207"/><rect fill="#F8F8F8" height="5" style="stroke: #383838; stroke-width: 1.0;" width="10" x="147" y="226.4844"/><text fill="#000000" font-family="Tahoma, sans-serif" font-size="12" lengthAdjust="spacingAndGlyphs" textLength="44" x="162" y="224.0059">morgan</text><ellipse cx="153.9706" cy="50.242" fill="#F8F8F8" rx="19.9706" ry="13.242" style="stroke: #383838; stroke-width: 0.5;"/><text fill="#000000" font-family="Tahoma, sans-serif" font-size="12" font-weight="bold" lengthAdjust="spacingAndGlyphs" textLength="24" x="141.9706" y="53.9842">app</text><ellipse cx="374.7548" cy="109.742" fill="#F8F8F8" rx="48.2548" ry="13.242" style="stroke: #383838; stroke-width: 0.5;"/><text fill="#000000" font-family="Tahoma, sans-serif" font-size="12" lengthAdjust="spacingAndGlyphs" textLength="64" x="342.7548" y="113.4842">check-auth</text><ellipse cx="501.7843" cy="50.242" fill="#F8F8F8" rx="31.2843" ry="13.242" style="stroke: #383838; stroke-width: 0.5;"/><text fill="#000000" font-family="Tahoma, sans-serif" font-size="12" font-weight="bold" lengthAdjust="spacingAndGlyphs" textLength="40" x="481.7843" y="53.9842">image</text><ellipse cx="587.0624" cy="50.242" fill="#F8F8F8" rx="39.0624" ry="13.242" style="stroke: #383838; stroke-width: 0.5;"/><text fill="#000000" font-family="Tahoma, sans-serif" font-size="12" font-weight="bold" lengthAdjust="spacingAndGlyphs" textLength="51" x="561.5624" y="53.9842">interest</text><ellipse cx="711.8003" cy="49.7601" fill="#F8F8F8" rx="71.8003" ry="16.7601" style="stroke: #383838; stroke-width: 0.5;"/><text fill="#000000" font-family="Tahoma, sans-serif" font-size="12" font-weight="bold" lengthAdjust="spacingAndGlyphs" textLength="117" x="653.3003" y="53.5022">interestController</text><ellipse cx="501.8309" cy="109.2662" fill="#F8F8F8" rx="64.3309" ry="15.2662" style="stroke: #383838; stroke-width: 0.5;"/><text fill="#000000" font-family="Tahoma, sans-serif" font-size="12" font-weight="bold" lengthAdjust="spacingAndGlyphs" textLength="99" x="452.3309" y="113.0084">loginController</text><ellipse cx="612.9914" cy="109.742" fill="#F8F8F8" rx="31.9914" ry="13.242" style="stroke: #383838; stroke-width: 0.5;"/><text fill="#000000" font-family="Tahoma, sans-serif" font-size="12" font-weight="bold" lengthAdjust="spacingAndGlyphs" textLength="41" x="592.4914" y="113.4842">match</text><ellipse cx="379.0426" cy="50.2085" fill="#F8F8F8" rx="61.5426" ry="14.7085" style="stroke: #383838; stroke-width: 0.5;"/><text fill="#000000" font-family="Tahoma, sans-serif" font-size="12" lengthAdjust="spacingAndGlyphs" textLength="92" x="333.0426" y="53.9507">matchController</text><ellipse cx="690.9914" cy="109.742" fill="#F8F8F8" rx="31.9914" ry="13.242" style="stroke: #383838; stroke-width: 0.5;"/><text fill="#000000" font-family="Tahoma, sans-serif" font-size="12" font-weight="bold" lengthAdjust="spacingAndGlyphs" textLength="41" x="670.4914" y="113.4842">server</text><ellipse cx="289.1777" cy="109.742" fill="#F8F8F8" rx="20.6777" ry="13.242" style="stroke: #383838; stroke-width: 0.5;"/><text fill="#000000" font-family="Tahoma, sans-serif" font-size="12" lengthAdjust="spacingAndGlyphs" textLength="25" x="276.6777" y="113.4842">user</text><ellipse cx="245.8275" cy="49.8655" fill="#F8F8F8" rx="57.3275" ry="13.8655" style="stroke: #383838; stroke-width: 0.5;"/><text fill="#000000" font-family="Tahoma, sans-serif" font-size="12" lengthAdjust="spacingAndGlyphs" textLength="81" x="205.3275" y="53.6077">userController</text><!--MD5=[c7d01faba8b2d9503e8a46bf365c7351]
link <b>app</b> to cookie-parser--><path d="M149.359,62.743 C138.312,90.695 110.335,161.486 96.2984,197.0025 " fill="none" id="&lt;b&gt;app&lt;/b&gt;-&gt;cookie-parser" style="stroke: #000000; stroke-width: 1.0;"/><polygon fill="#000000" points="94.3323,201.9773,101.3604,195.0776,96.1701,197.3273,93.9204,192.1371,94.3323,201.9773" style="stroke: #000000; stroke-width: 1.0;"/><!--MD5=[d495acc2d1ae70ec28038204d7ad0bae]
link <b>app</b> to matchController--><path d="M163.323,38.099 C169.49,31.234 178.224,23.242 188,19.5 C235.733,1.228 252.817,9.806 303,19.5 C318.416,22.478 334.675,28.563 348.181,34.519 " fill="none" id="&lt;b&gt;app&lt;/b&gt;-&gt;matchController" style="stroke: #000000; stroke-width: 1.0;"/><polygon fill="#000000" points="353.025,36.702,346.4631,29.3575,348.4665,34.6477,343.1763,36.6511,353.025,36.702" style="stroke: #000000; stroke-width: 1.0;"/><!--MD5=[8bd65e57149748ead44e78b163957856]
link <b>app</b> to mongoose--><path d="M161.926,62.217 C181.539,89.975 232.568,162.194 257.654,197.6965 " fill="none" id="&lt;b&gt;app&lt;/b&gt;-&gt;mongoose" style="stroke: #000000; stroke-width: 1.0;"/><polygon fill="#000000" points="260.581,201.8386,258.6536,192.1802,257.6954,197.7553,252.1203,196.7971,260.581,201.8386" style="stroke: #000000; stroke-width: 1.0;"/><!--MD5=[119eadc9040f5f4ce922f16aec1895e0]
link <b>app</b> to morgan--><path d="M156.158,63.01 C161.203,91.096 173.825,161.361 180.196,196.8225 " fill="none" id="&lt;b&gt;app&lt;/b&gt;-&gt;morgan" style="stroke: #000000; stroke-width: 1.0;"/><polygon fill="#000000" points="181.089,201.7928,183.4346,192.2273,180.2049,196.8716,175.5606,193.6419,181.089,201.7928" style="stroke: #000000; stroke-width: 1.0;"/><!--MD5=[e50a30466750b9ddc7ec14900128f8f9]
link <b>app</b> to userController--><path d="M174.125,50 C177.108,50 180.091,50 183.074,50 " fill="none" id="&lt;b&gt;app&lt;/b&gt;-&gt;userController" style="stroke: #000000; stroke-width: 1.0;"/><polygon fill="#000000" points="188.444,50,179.444,46,183.444,50,179.444,54,188.444,50" style="stroke: #000000; stroke-width: 1.0;"/><!--MD5=[b6d83f23438d9844565214714b0f3abb]
link matchController to check-auth--><path d="M378.052,64.627 C377.501,72.547 376.801,82.609 376.211,91.098 " fill="none" id="matchController-&gt;check-auth" style="stroke: #000000; stroke-width: 0.5;"/><polygon fill="#000000" points="375.859,96.147,380.4743,87.4465,376.2062,91.1591,372.4936,86.891,375.859,96.147" style="stroke: #000000; stroke-width: 0.5;"/><!--MD5=[91f7ebe18cbb5ce0f0f4010e34d6d68d]
link matchController to user--><path d="M359.026,63.761 C343.539,73.656 322.252,87.255 307.225,96.856 " fill="none" id="matchController-&gt;user" style="stroke: #000000; stroke-width: 0.5;"/><polygon fill="#000000" points="302.776,99.699,312.5139,98.2245,306.9895,97.0071,308.2069,91.4828,302.776,99.699" style="stroke: #000000; stroke-width: 0.5;"/><!--MD5=[fa798d6e487f73c54c66aa80b75a1a19]
link user to mongoose--><path d="M287.05,122.832 C284.192,140.906 278.826,174.8337 275.334,196.9145 " fill="none" id="user-&gt;mongoose" style="stroke: #000000; stroke-width: 0.5;"/><polygon fill="#000000" points="274.533,201.9824,279.8897,193.7177,275.314,197.0438,271.9879,192.4681,274.533,201.9824" style="stroke: #000000; stroke-width: 0.5;"/><!--MD5=[c7b07524b1cd92c00a5e7f52d8d45f66]
link userController to check-auth--><path d="M272.105,62.636 C293.825,72.317 324.676,86.069 346.925,95.986 " fill="none" id="userController-&gt;check-auth" style="stroke: #000000; stroke-width: 0.5;"/><polygon fill="#000000" points="351.536,98.041,344.9441,90.7234,346.9691,96.0054,341.6871,98.0304,351.536,98.041" style="stroke: #000000; stroke-width: 0.5;"/><!--MD5=[8243e36864259c7a04bcc4d26f528336]
link userController to mongoose--><path d="M248.04,64.104 C252.495,92.715 263.129,161.022 268.608,196.2157 " fill="none" id="userController-&gt;mongoose" style="stroke: #000000; stroke-width: 0.5;"/><polygon fill="#000000" points="269.442,201.5686,272.0099,192.0604,268.6729,196.6281,264.1052,193.291,269.442,201.5686" style="stroke: #000000; stroke-width: 0.5;"/><!--MD5=[17cc18727cae139f0e683b9ae5fa405a]
link userController to user--><path d="M255.757,64.048 C262.231,72.704 270.753,84.1 277.548,93.186 " fill="none" id="userController-&gt;user" style="stroke: #000000; stroke-width: 0.5;"/><polygon fill="#000000" points="280.728,97.439,278.5417,87.8359,277.7337,93.4347,272.1349,92.6267,280.728,97.439" style="stroke: #000000; stroke-width: 0.5;"/><!--MD5=[81a0649f133fac58d0e6b432c8d3f7de]
link <b>image</b> to <b>interest</b>--><!--MD5=[896bc9156e647d16027161a6a29abd26]
link <b>interest</b> to <b>interestController</b>--><!--MD5=[c09ded4f52c225955420d38542be76d7]
link <b>image</b> to <b>loginController</b>--><!--MD5=[41fe49f74413a8038118a9ca6f01fbae]
link <b>loginController</b> to <b>match</b>--><!--MD5=[56624bb96d938cc88d0c623071f3567d]
link <b>match</b> to <b>server</b>--><script type="text/plantuml"><![CDATA[MD5=[2ec0a3cc68d0c05605f056cb86572265]
@startuml

scale max 1920 width
top to bottom direction

skinparam nodesep 14
skinparam ranksep 27
skinparam monochrome true
skinparam shadowing false
skinparam defaultFontName Tahoma
skinparam defaultFontSize 12
skinparam roundCorner 6
skinparam dpi 150
skinparam arrowColor black
skinparam arrowThickness 0.5
skinparam packageTitleAlignment left

skinparam usecase {
  borderThickness 0.5
}

skinparam rectangle {
  borderThickness 0.5
}

skinparam component {
  borderThickness 1
}


(<b>app</b>)
(check-auth)
(<b>image</b>)
(<b>interest</b>)
(<b>interestController</b>)
(<b>loginController</b>)
(<b>match</b>)
(matchController)
(<b>server</b>)
(user)
(userController)

package "Dependencies" {
  [cookie-parser]
  [mongoose]
  [morgan]
}

(<b>app</b>) --[thickness=1]> [cookie-parser]
(<b>app</b>) -[thickness=1]> (matchController)
(<b>app</b>) --[thickness=1]> [mongoose]
(<b>app</b>) --[thickness=1]> [morgan]
(<b>app</b>) -[thickness=1]> (userController)
(matchController) --> (check-auth)
(matchController) --> (user)
(user) ---> [mongoose]
(userController) --> (check-auth)
(userController) ---> [mongoose]
(userController) --> (user)

@enduml


' View and edit on https://arkit.pro
]]></script></g></svg>